# xmcd
#
# Track frame offsets:
#	150
#	8805
#	18945
#	26960
#	35277
#	46495
#	58030
#	72975
#	83425
#	95687
#	110030
#	121000
#	131512
#	143640
#	155940
#	164982
#	174867
#	191882
#	202695
#	216430
#
# Disc length: 3035 seconds
#
# Revision: 1
# Processed by: cddbd v1.4PL0 Copyright (c) Steve Scherf et al.
# Submitted via: EasyCDDAExtractor 5.0.7
#
DISCID=1c0bd914
DTITLE=Various Artist - Best Of Pyramid Record Company
DYEAR=1900
DGENRE=Blues
TTITLE0=Egyptians - The Girl Is You
TTITLE1=Rival-Tones - It's Wonderful
TTITLE2=Five Discs - Let's Fall In Love
TTITLE3=Channels - Now You Know
TTITLE4=Rival-Tones - I'm So All Alone
TTITLE5=Egyptians - Gloria
TTITLE6=Dino and The Heartspinners - Flames
TTITLE7=Five Jades - Let There Be You
TTITLE8=Nutmegs - Over The Rainbow
TTITLE9=Dixiaires - You Can't Cure The Blues
TTITLE10=Egyptians - Love Train
TTITLE11=Nutmegs - In The Still Of The Night
TTITLE12=Five Discs - That Was The Time
TTITLE13=Five Jades - Are You Sorry
TTITLE14=Egyptians - Doo-Limbo
TTITLE15=Channels - Bye Bye Baby
TTITLE16=Dino and The Heartspinners - Shirley
TTITLE17=Egyptians - Never Never Let You Go
TTITLE18=Dixiaires - Until You Say You Are Mine
TTITLE19=Egyptians - I've Been Told
EXTD=
EXTT0=
EXTT1=
EXTT2=
EXTT3=
EXTT4=
EXTT5=
EXTT6=
EXTT7=
EXTT8=
EXTT9=
EXTT10=
EXTT11=
EXTT12=
EXTT13=
EXTT14=
EXTT15=
EXTT16=
EXTT17=
EXTT18=
EXTT19=
PLAYORDER=
